<svg width="194" height="40" viewBox="0 0 970 200" xmlns="http://www.w3.org/2000/svg">
  <defs>
    <linearGradient id="centerGradient" x1="0%" y1="0%" x2="100%" y2="100%">
      <stop offset="0%" stop-color="#3B82F6" stop-opacity="1" />
      <stop offset="100%" stop-color="#8B5CF6" stop-opacity="1" />
    </linearGradient>
    <linearGradient id="textGradient" x1="0%" y1="0%" x2="100%" y2="0%">
      <stop offset="0%" stop-color="#2563EB" stop-opacity="1" />
      <stop offset="100%" stop-color="#9333EA" stop-opacity="1" />
    </linearGradient>
  </defs>

  <!-- Icon left -->
  <g transform="translate(20,10)">
    <!-- Four-lobed center shape -->
    <path d="M30 8 C 39 8, 48 8, 48 17 C 48 26, 48 26, 39 26 C 30 26, 30 35, 30 44 C 30 53, 21 53, 12 53 C 3 53, 3 44, 3 35 C 3 26, 3 26, 12 26 C 21 26, 21 17, 21 8 C 21 -1, 30 -1, 30 8 Z" fill="url(#centerGradient)" stroke="#ffffff" stroke-width="1.2"/>
    <!-- Top circle -->
    <circle cx="30" cy="8" r="7" fill="#8B5CF6" stroke="#ffffff" stroke-width="0.8"/>
    <!-- Right circle -->
    <circle cx="48" cy="26" r="7" fill="#8B5CF6" stroke="#ffffff" stroke-width="0.8"/>
    <!-- Bottom circle -->
    <circle cx="30" cy="44" r="7" fill="#EC4899" stroke="#ffffff" stroke-width="0.8"/>
    <!-- Left circle -->
    <circle cx="12" cy="26" r="7" fill="#3B82F6" stroke="#ffffff" stroke-width="0.8"/>
  </g>

  <!-- Text right -->
  <text x="70" y="28" font-family="-apple-system, BlinkMacSystemFont, 'Segoe UI', Roboto, 'Helvetica Neue', Arial, sans-serif" font-size="20" font-weight="700" fill="url(#textGradient)" letter-spacing="-0.5">ClientFuse</text>
</svg>

