<svg width="16" height="16" viewBox="0 0 16 16" xmlns="http://www.w3.org/2000/svg">
  <defs>
    <linearGradient id="centerGradient" x1="0%" y1="0%" x2="100%" y2="100%">
      <stop offset="0%" style="stop-color:#3B82F6;stop-opacity:1" />
      <stop offset="100%" style="stop-color:#8B5CF6;stop-opacity:1" />
    </linearGradient>
  </defs>
  <!-- Four-lobed center shape with deeply concave sides -->
  <path d="M8 3 C 10 3, 12 3, 12 5 C 12 7, 12 7, 10 7 C 8 7, 8 9, 8 11 C 8 13, 6 13, 4 13 C 2 13, 2 11, 2 9 C 2 7, 2 7, 4 7 C 6 7, 6 5, 6 3 C 6 1, 8 1, 8 3 Z" fill="url(#centerGradient)" stroke="#ffffff" stroke-width="0.5"/>
  
  <!-- Top circle -->
  <circle cx="8" cy="3" r="1.5" fill="#8B5CF6" stroke="#ffffff" stroke-width="0.4"/>
  
  <!-- Right circle -->
  <circle cx="13" cy="8" r="1.5" fill="#8B5CF6" stroke="#ffffff" stroke-width="0.4"/>
  
  <!-- Bottom circle -->
  <circle cx="8" cy="13" r="1.5" fill="#EC4899" stroke="#ffffff" stroke-width="0.4"/>
  
  <!-- Left circle -->
  <circle cx="3" cy="8" r="1.5" fill="#3B82F6" stroke="#ffffff" stroke-width="0.4"/>
</svg>