<svg width="32" height="32" viewBox="0 0 32 32" xmlns="http://www.w3.org/2000/svg">
  <defs>
    <linearGradient id="centerGradient" x1="0%" y1="0%" x2="100%" y2="100%">
      <stop offset="0%" style="stop-color:#3B82F6;stop-opacity:1" />
      <stop offset="100%" style="stop-color:#8B5CF6;stop-opacity:1" />
    </linearGradient>
  </defs>
  <!-- Four-lobed center shape with deeply concave sides -->
  <path d="M16 6 C 20 6, 24 6, 24 10 C 24 14, 24 14, 20 14 C 16 14, 16 18, 16 22 C 16 26, 12 26, 8 26 C 4 26, 4 22, 4 18 C 4 14, 4 14, 8 14 C 12 14, 12 10, 12 6 C 12 2, 16 2, 16 6 Z" fill="url(#centerGradient)" stroke="#ffffff" stroke-width="1"/>
  
  <!-- Top circle -->
  <circle cx="16" cy="6" r="3" fill="#8B5CF6" stroke="#ffffff" stroke-width="0.8"/>
  
  <!-- Right circle -->
  <circle cx="26" cy="16" r="3" fill="#8B5CF6" stroke="#ffffff" stroke-width="0.8"/>
  
  <!-- Bottom circle -->
  <circle cx="16" cy="26" r="3" fill="#EC4899" stroke="#ffffff" stroke-width="0.8"/>
  
  <!-- Left circle -->
  <circle cx="6" cy="16" r="3" fill="#3B82F6" stroke="#ffffff" stroke-width="0.8"/>
</svg>