<svg width="180" height="50" viewBox="0 0 180 50" xmlns="http://www.w3.org/2000/svg">
  <!-- Gradient definition -->
  <defs>
    <linearGradient id="chain12" x1="0%" y1="0%" x2="100%" y2="0%">
      <stop offset="0%" style="stop-color:#3B82F6;stop-opacity:1" />
      <stop offset="100%" style="stop-color:#8B5CF6;stop-opacity:1" />
    </linearGradient>
  </defs>
  
  <!-- Puzzle chain links -->
  <g transform="translate(10, 10)">
    <!-- First puzzle piece -->
    <path d="M8 4 L 12 4 L 12 6 L 14 6 L 14 8 L 12 8 L 12 10 L 8 10 L 8 8 L 6 8 L 6 6 L 8 6 Z" fill="url(#chain12)" stroke="#ffffff" stroke-width="1.5"/>
    <!-- Second puzzle piece -->
    <path d="M18 4 L 22 4 L 22 6 L 24 6 L 24 8 L 22 8 L 22 10 L 18 10 L 18 8 L 16 8 L 16 6 L 18 6 Z" fill="#8B5CF6" stroke="#ffffff" stroke-width="1.5"/>
    <!-- Third puzzle piece -->
    <path d="M28 4 L 32 4 L 32 6 L 34 6 L 34 8 L 32 8 L 32 10 L 28 10 L 28 8 L 26 8 L 26 6 L 28 6 Z" fill="#EC4899" stroke="#ffffff" stroke-width="1.5"/>
  </g>
  
  <!-- Company name -->
  <text x="50" y="20" font-family="system-ui, -apple-system, sans-serif" font-size="18" font-weight="700" fill="#1E293B">Client</text>
  <text x="50" y="35" font-family="system-ui, -apple-system, sans-serif" font-size="18" font-weight="700" fill="url(#chain12)">Fuse</text>
  
  <!-- Tagline -->
  <text x="130" y="25" font-family="system-ui, -apple-system, sans-serif" font-size="11" fill="#64748B">Puzzle Links</text>
</svg>
