<svg width="180" height="50" viewBox="0 0 180 50" xmlns="http://www.w3.org/2000/svg">
  <!-- Gradient definition -->
  <defs>
    <linearGradient id="chain9" x1="0%" y1="0%" x2="100%" y2="0%">
      <stop offset="0%" style="stop-color:#3B82F6;stop-opacity:1" />
      <stop offset="100%" style="stop-color:#8B5CF6;stop-opacity:1" />
    </linearGradient>
  </defs>
  
  <!-- Star chain links -->
  <g transform="translate(10, 10)">
    <!-- First star -->
    <path d="M8 3 L 9 7 L 13 7 L 10 10 L 11 14 L 8 12 L 5 14 L 6 10 L 3 7 L 7 7 Z" fill="url(#chain9)" stroke="#ffffff" stroke-width="1.5"/>
    <!-- Second star -->
    <path d="M18 3 L 19 7 L 23 7 L 20 10 L 21 14 L 18 12 L 15 14 L 16 10 L 13 7 L 17 7 Z" fill="#8B5CF6" stroke="#ffffff" stroke-width="1.5"/>
    <!-- Third star -->
    <path d="M28 3 L 29 7 L 33 7 L 30 10 L 31 14 L 28 12 L 25 14 L 26 10 L 23 7 L 27 7 Z" fill="#EC4899" stroke="#ffffff" stroke-width="1.5"/>
  </g>
  
  <!-- Company name -->
  <text x="50" y="20" font-family="system-ui, -apple-system, sans-serif" font-size="18" font-weight="700" fill="#1E293B">Client</text>
  <text x="50" y="35" font-family="system-ui, -apple-system, sans-serif" font-size="18" font-weight="700" fill="url(#chain9)">Fuse</text>
  
  <!-- Tagline -->
  <text x="130" y="25" font-family="system-ui, -apple-system, sans-serif" font-size="11" fill="#64748B">Star Links</text>
</svg>
