<svg width="2000" height="2000" viewBox="0 0 200 200" xmlns="http://www.w3.org/2000/svg">
  <defs>
    <linearGradient id="centerGradient" x1="0%" y1="0%" x2="100%" y2="100%">
      <stop offset="0%" style="stop-color:#3B82F6;stop-opacity:1" />
      <stop offset="100%" style="stop-color:#8B5CF6;stop-opacity:1" />
    </linearGradient>
  </defs>
  <!-- Four-lobed center shape with deeply concave sides -->
  <path d="M100 40 C 130 40, 160 40, 160 70 C 160 100, 160 100, 130 100 C 100 100, 100 130, 100 160 C 100 190, 70 190, 40 190 C 10 190, 10 160, 10 130 C 10 100, 10 100, 40 100 C 70 100, 70 70, 70 40 C 70 10, 100 10, 100 40 Z" fill="url(#centerGradient)" stroke="#ffffff" stroke-width="4"/>
  
  <!-- Top circle -->
  <circle cx="100" cy="40" r="20" fill="#8B5CF6" stroke="#ffffff" stroke-width="3"/>
  
  <!-- Right circle -->
  <circle cx="160" cy="100" r="20" fill="#8B5CF6" stroke="#ffffff" stroke-width="3"/>
  
  <!-- Bottom circle -->
  <circle cx="100" cy="160" r="20" fill="#EC4899" stroke="#ffffff" stroke-width="3"/>
  
  <!-- Left circle -->
  <circle cx="40" cy="100" r="20" fill="#3B82F6" stroke="#ffffff" stroke-width="3"/>
</svg>




