<svg width="180" height="50" viewBox="0 0 180 50" xmlns="http://www.w3.org/2000/svg">
  <!-- Gradient definition -->
  <defs>
    <linearGradient id="chain15" x1="0%" y1="0%" x2="100%" y2="0%">
      <stop offset="0%" style="stop-color:#3B82F6;stop-opacity:1" />
      <stop offset="100%" style="stop-color:#8B5CF6;stop-opacity:1" />
    </linearGradient>
  </defs>
  
  <!-- Cloud chain links -->
  <g transform="translate(10, 10)">
    <!-- First cloud -->
    <path d="M8 8 C 5 8, 3 10, 3 13 C 3 16, 5 18, 8 18 C 10 18, 12 16, 12 13 C 12 10, 10 8, 8 8 Z" fill="url(#chain15)" stroke="#ffffff" stroke-width="1.5"/>
    <!-- Second cloud -->
    <path d="M18 8 C 15 8, 13 10, 13 13 C 13 16, 15 18, 18 18 C 20 18, 22 16, 22 13 C 22 10, 20 8, 18 8 Z" fill="#8B5CF6" stroke="#ffffff" stroke-width="1.5"/>
    <!-- Third cloud -->
    <path d="M28 8 C 25 8, 23 10, 23 13 C 23 16, 25 18, 28 18 C 30 18, 32 16, 32 13 C 32 10, 30 8, 28 8 Z" fill="#EC4899" stroke="#ffffff" stroke-width="1.5"/>
  </g>
  
  <!-- Company name -->
  <text x="50" y="20" font-family="system-ui, -apple-system, sans-serif" font-size="18" font-weight="700" fill="#1E293B">Client</text>
  <text x="50" y="35" font-family="system-ui, -apple-system, sans-serif" font-size="18" font-weight="700" fill="url(#chain15)">Fuse</text>
  
  <!-- Tagline -->
  <text x="130" y="25" font-family="system-ui, -apple-system, sans-serif" font-size="11" fill="#64748B">Cloud Links</text>
</svg>
